{"title":"[Seiakusetsu] Sakura Trick - 01 (1280x720 h264 AAC) [ca943c7e].m","uid":9469068,"size":263057504,"categoryP":"video","categoryS":"hd___tv_shows","magnet":"?xt=urn:btih:5aea5da5062e12acaa5f527367c14789ec52b16c&amp;dn=%5BSeiakusetsu%5D+Sakura+Trick+-+01+%281280x720+h264+AAC%29+%5Bca943c7e%5D.m&amp;tr=udp%3A%2F%2Ftracker.openbittorrent.com%3A80&amp;tr=udp%3A%2F%2Fopen.demonii.com%3A1337&amp;tr=udp%3A%2F%2Ftracker.coppersurfer.tk%3A6969&amp;tr=udp%3A%2F%2Fexodus.desync.com%3A6969","seeders":1,"leechers":0,"uploader":null,"files":-1,"time":1389517876,"description":"Episode 01 - Sakura-coloured Beginning\n\nHaruka Takayama and Yuu Sonoda are two best friends who are just starting high school together. However, as the school year starts and the two starting making new friends, Haruka worries that her friendship with Yuu will stop being special. After Yuu suggests that the two of them do something that is unique to them, Haruka suggests they start kissing each other in secret as proof of their special friendship. Later, Haruka and Yuu get locked inside an empty classroom whilst they were kissing on the veranda, requiring them to cross a large gap between verandas to get to the neighbouring classroom.\n\n\n\nGeneral\n\nFormat                         : MPEG-4\nFormat profile                 : Base Media\nCodec ID                       : isom\nFile size                      : 251 MiB\nDuration                       : 24mn 9s\nOverall bit rate mode          : Variable\nOverall bit rate               : 1 452 Kbps\n\n\nVideo\n\nID                             : 1\nFormat                         : AVC\nFormat/Info                    : Advanced Video Codec\nFormat profile                 : &lt;a class=&quot;__cf_email__&quot; href=&quot;/cdn-cgi/l/email-protection&quot; data-cfemail=&quot;c38baaa4ab838ff7edf2&quot;&gt;[email&amp;#160;protected]&lt;/a&gt;&lt;script cf-hash='f9e31' type=&quot;text/javascript&quot;&gt;\n/* &lt;![CDATA[ */!function(){try{var t=&quot;currentScript&quot;in document?document.currentScript:function(){for(var t=document.getElementsByTagName(&quot;script&quot;),e=t.length;e--;)if(t[e].getAttribute(&quot;cf-hash&quot;))return t[e]}();if(t&amp;&amp;t.previousSibling){var e,r,n,i,c=t.previousSibling,a=c.getAttribute(&quot;data-cfemail&quot;);if(a){for(e=&quot;&quot;,r=parseInt(a.substr(0,2),16),n=2;a.length-n;n+=2)i=parseInt(a.substr(n,2),16)^r,e+=String.fromCharCode(i);e=document.createTextNode(e),c.parentNode.replaceChild(e,c)}}}catch(u){}}();/* ]]&gt; */&lt;/script&gt;\nFormat settings, CABAC         : Yes\nFormat settings, ReFrames      : 2 frames\nCodec ID                       : avc1\nCodec ID/Info                  : Advanced Video Coding\nDuration                       : 24mn 9s\nBit rate                       : 1 311 Kbps\nMaximum bit rate               : 7 545 Kbps\nWidth                          : 1 280 pixels\nHeight                         : 720 pixels\nDisplay aspect ratio           : 16:9\nFrame rate mode                : Constant\nFrame rate                     : 23.976 fps\nColor space                    : YUV\nChroma subsampling             : 4:2:0\nBit depth                      : 8 bits\nScan type                      : Progressive\nBits/(Pixel*Frame)             : 0.059\nStream size                    : 227 MiB (90%)\n\n\nAudio\n\nID                             : 2\nFormat                         : AAC\nFormat/Info                    : Advanced Audio Codec\nFormat profile                 : LC\nCodec ID                       : 40\nDuration                       : 24mn 9s\nBit rate mode                  : Variable\nBit rate                       : 136 Kbps\nMaximum bit rate               : 178 Kbps\nChannel count                  : 2 channels\nChannel positions              : Front: L R\nSampling rate                  : 48.0 KHz\nCompression mode               : Lossy\nDelay relative to video        : 42ms\nStream size                    : 23.5 MiB (9%)\n\n\nscreenshots: &lt;a href=&quot;\nhttp://i.imgur.com/jkfe1k1.jpg&quot; rel=&quot;nofollow&quot; target=&quot;_NEW&quot;&gt;\nhttp://i.imgur.com/jkfe1k1.jpg&lt;/a&gt;\n\n","torrent":{"xt":"urn:btih:5aea5da5062e12acaa5f527367c14789ec52b16c","amp;dn":"%5BSeiakusetsu%5D+Sakura+Trick+-+01+%281280x720+h264+AAC%29+%5Bca943c7e%5D.m","amp;tr":["udp%3A%2F%2Ftracker.openbittorrent.com%3A80","udp%3A%2F%2Fopen.demonii.com%3A1337","udp%3A%2F%2Ftracker.coppersurfer.tk%3A6969","udp%3A%2F%2Fexodus.desync.com%3A6969"],"infoHash":"5aea5da5062e12acaa5f527367c14789ec52b16c","infoHashBuffer":{"type":"Buffer","data":[90,234,93,165,6,46,18,172,170,95,82,115,103,193,71,137,236,82,177,108]},"announce":[],"urlList":[]}}